<?xml version="1.0" encoding="UTF-8"?>
<!DOCTYPE svg PUBLIC "-//W3C//DTD SVG 1.1//EN" "http://www.w3.org/Graphics/SVG/1.1/DTD/svg11.dtd">
<svg xmlns="http://www.w3.org/2000/svg" version="1.1" width="716px" height="205px" style="shape-rendering:geometricPrecision; text-rendering:geometricPrecision; image-rendering:optimizeQuality; fill-rule:evenodd; clip-rule:evenodd" xmlns:xlink="http://www.w3.org/1999/xlink">
<g><path style="opacity:1" fill="#f6f6f6" d="M -0.5,-0.5 C 238.167,-0.5 476.833,-0.5 715.5,-0.5C 715.5,67.8333 715.5,136.167 715.5,204.5C 476.833,204.5 238.167,204.5 -0.5,204.5C -0.5,136.167 -0.5,67.8333 -0.5,-0.5 Z"/></g>
<g><path style="opacity:1" fill="#9e4850" d="M 82.5,35.5 C 89.2719,34.6362 94.1052,37.3029 97,43.5C 98.8378,47.1756 100.671,50.8422 102.5,54.5C 111.945,38.1452 120.445,38.8118 128,56.5C 137.219,87.6294 137.886,118.963 130,150.5C 127.94,155.62 125.607,160.62 123,165.5C 119.806,170.339 115.639,171.506 110.5,169C 107.447,165.696 104.781,162.196 102.5,158.5C 89.8726,184.388 79.0393,183.388 70,155.5C 61.3334,122.166 61.3334,88.8323 70,55.5C 72.388,47.6346 76.5547,40.9679 82.5,35.5 Z"/></g>
<g><path style="opacity:1" fill="#9e4950" d="M 65.5,42.5 C 66.2389,42.369 66.9056,42.5357 67.5,43C 50.378,60.0145 42.0447,80.6812 42.5,105C 42.6811,122.558 46.8477,139.058 55,154.5C 58.0834,159.588 61.9167,164.088 66.5,168C 38.6721,156.104 24.0054,134.77 22.5,104C 24.2092,82.5828 33.5425,65.2495 50.5,52C 55.5644,48.8087 60.5644,45.6421 65.5,42.5 Z"/></g>
<g><path style="opacity:1" fill="#f4f3f3" d="M 90.5,54.5 C 95.4451,53.3106 98.7784,54.9773 100.5,59.5C 92.5355,90.5101 92.5355,121.51 100.5,152.5C 100.21,156.124 98.2095,158.124 94.5,158.5C 89.1369,156.636 85.6369,152.97 84,147.5C 75.083,119.028 75.4163,90.6949 85,62.5C 86.5963,59.6305 88.4297,56.9639 90.5,54.5 Z"/></g>
<g><path style="opacity:1" fill="#696969" d="M 205.5,67.5 C 222.338,66.173 239.338,66.173 256.5,67.5C 256.376,68.1067 256.043,68.44 255.5,68.5C 239.008,67.5035 222.342,67.1702 205.5,67.5 Z"/></g>
<g><path style="opacity:1" fill="#676867" d="M 541.5,67.5 C 557.992,66.5035 574.658,66.1702 591.5,66.5C 591.737,67.791 591.404,68.791 590.5,69.5C 574.534,67.5149 558.201,66.8482 541.5,67.5 Z"/></g>
<g><path style="opacity:1" fill="#161616" d="M 596.5,65.5 C 604.196,65.1692 611.862,65.5025 619.5,66.5C 617.862,71.7168 616.862,77.0501 616.5,82.5C 608.493,82.6664 600.493,82.4997 592.5,82C 594.064,76.5764 595.397,71.0764 596.5,65.5 Z"/></g>
<g><path style="opacity:1" fill="#111111" d="M 205.5,67.5 C 222.342,67.1702 239.008,67.5035 255.5,68.5C 254.07,73.7429 253.07,79.0762 252.5,84.5C 243.167,84.5 233.833,84.5 224.5,84.5C 224.5,85.5 224.5,86.5 224.5,87.5C 223.566,88.5676 223.232,89.901 223.5,91.5C 231.684,91.1743 239.684,91.5076 247.5,92.5C 246.833,96.5 246.167,100.5 245.5,104.5C 244.596,105.209 244.263,106.209 244.5,107.5C 246.099,107.232 247.432,107.566 248.5,108.5C 240.167,108.5 231.833,108.5 223.5,108.5C 223.492,111.545 223.159,114.545 222.5,117.5C 221.596,118.209 221.263,119.209 221.5,120.5C 230.5,120.5 239.5,120.5 248.5,120.5C 246.916,126.082 245.583,131.749 244.5,137.5C 227.833,137.5 211.167,137.5 194.5,137.5C 196.755,127.225 198.755,116.892 200.5,106.5C 199.022,106.762 197.689,106.429 196.5,105.5C 199.139,92.5969 202.139,79.9303 205.5,67.5 Z"/></g>
<g><path style="opacity:1" fill="#121212" d="M 541.5,67.5 C 558.201,66.8482 574.534,67.5149 590.5,69.5C 589.341,74.4678 588.341,79.4678 587.5,84.5C 578.5,84.5 569.5,84.5 560.5,84.5C 560.007,86.8056 559.674,89.139 559.5,91.5C 567.528,91.169 575.528,91.5023 583.5,92.5C 581.988,97.0597 580.988,101.726 580.5,106.5C 581.833,106.5 583.167,106.5 584.5,106.5C 584.5,107.5 584.5,108.5 584.5,109.5C 576.167,109.5 567.833,109.5 559.5,109.5C 557.498,118.841 555.498,128.174 553.5,137.5C 545.833,137.5 538.167,137.5 530.5,137.5C 532.657,127.205 534.657,116.871 536.5,106.5C 535.022,106.762 533.689,106.429 532.5,105.5C 535.501,92.8254 538.501,80.1587 541.5,67.5 Z"/></g>
<g><path style="opacity:1" fill="#4f4f4f" d="M 629.5,71.5 C 637.01,70.1801 644.677,70.1801 652.5,71.5C 652.376,72.1067 652.043,72.44 651.5,72.5C 644.352,71.5084 637.019,71.175 629.5,71.5 Z"/></g>
<g><path style="opacity:1" fill="#f5f3f3" d="M 119.5,70.5 C 124.67,71.1643 127.837,74.1643 129,79.5C 134.262,99.8542 133.262,119.854 126,139.5C 123.095,143.327 120.095,143.327 117,139.5C 109.017,118.824 108.35,97.8241 115,76.5C 116.332,74.34 117.832,72.34 119.5,70.5 Z"/></g>
<g><path style="opacity:1" fill="#131313" d="M 629.5,71.5 C 637.019,71.175 644.352,71.5084 651.5,72.5C 650.514,76.4432 649.848,80.4432 649.5,84.5C 653.833,84.5 658.167,84.5 662.5,84.5C 661.756,89.8846 660.756,95.218 659.5,100.5C 654.786,100.173 650.12,100.507 645.5,101.5C 644.652,103.409 644.318,105.409 644.5,107.5C 645.833,107.5 647.167,107.5 648.5,107.5C 646.934,113.384 646.268,119.384 646.5,125.5C 649.599,125.908 651.933,124.741 653.5,122C 655.473,121.505 657.473,121.338 659.5,121.5C 658.023,127.075 657.023,132.742 656.5,138.5C 647.494,138.666 638.494,138.5 629.5,138C 624.718,135.274 622.384,131.107 622.5,125.5C 623.96,119.535 625.293,113.535 626.5,107.5C 624.833,107.5 623.167,107.5 621.5,107.5C 621.674,105.139 622.007,102.806 622.5,100.5C 620.833,100.5 619.167,100.5 617.5,100.5C 618.918,95.2464 619.918,89.9131 620.5,84.5C 622.833,84.5 625.167,84.5 627.5,84.5C 628.167,80.1667 628.833,75.8333 629.5,71.5 Z"/></g>
<g><path style="opacity:1" fill="#131313" d="M 342.5,82.5 C 350.517,81.4377 357.85,83.1044 364.5,87.5C 368.953,93.0175 370.62,99.3509 369.5,106.5C 371.144,106.714 372.644,106.38 374,105.5C 375.823,98.5504 377.323,91.5504 378.5,84.5C 386.373,83.9131 394.04,84.5797 401.5,86.5C 406.647,84.5007 411.981,84.0007 417.5,85C 415.659,91.0313 414.326,97.198 413.5,103.5C 411.473,103.662 409.473,103.495 407.5,103C 404.884,100.046 401.884,99.7129 398.5,102C 396.963,103.11 396.297,104.61 396.5,106.5C 397.978,106.238 399.311,106.571 400.5,107.5C 397.347,117.296 395.014,127.296 393.5,137.5C 386.167,137.5 378.833,137.5 371.5,137.5C 373.759,127.206 375.759,116.873 377.5,106.5C 376.5,106.5 375.5,106.5 374.5,106.5C 373.242,109.694 372.576,113.027 372.5,116.5C 361.833,116.5 351.167,116.5 340.5,116.5C 341.239,120.408 343.572,122.908 347.5,124C 352.943,125.03 357.943,124.03 362.5,121C 365.167,120.333 367.833,120.333 370.5,121C 369.106,125.072 367.94,129.238 367,133.5C 354.549,140.33 341.715,141.163 328.5,136C 318.975,128.593 316.308,119.093 320.5,107.5C 318.922,106.702 317.256,106.202 315.5,106C 321.055,93.928 330.055,86.0946 342.5,82.5 Z"/></g>
<g><path style="opacity:1" fill="#121212" d="M 307.5,104.5 C 306.596,105.209 306.263,106.209 306.5,107.5C 308.483,107.157 309.817,107.824 310.5,109.5C 308.185,118.759 306.185,128.092 304.5,137.5C 297.167,137.5 289.833,137.5 282.5,137.5C 284.978,127.256 286.978,116.922 288.5,106.5C 287.167,106.5 285.833,106.5 284.5,106.5C 285.592,101.877 283.925,100.044 279.5,101C 278.748,101.671 278.414,102.504 278.5,103.5C 277.566,104.568 277.232,105.901 277.5,107.5C 279.483,107.157 280.817,107.824 281.5,109.5C 279.117,118.747 277.117,128.08 275.5,137.5C 268.167,137.5 260.833,137.5 253.5,137.5C 255.518,127.427 257.852,117.427 260.5,107.5C 258.833,106.833 257.167,106.167 255.5,105.5C 257.42,98.8987 259.087,92.2321 260.5,85.5C 264.167,85.1667 267.833,84.8333 271.5,84.5C 275.595,84.5417 279.429,85.2084 283,86.5C 290.12,81.6256 297.286,81.4589 304.5,86C 308.557,91.6039 309.557,97.7705 307.5,104.5 Z"/></g>
<g><path style="opacity:1" fill="#121212" d="M 436.5,83.5 C 448.857,83.7132 461.19,84.3799 473.5,85.5C 471.371,92.3482 470.038,99.3482 469.5,106.5C 470.833,106.5 472.167,106.5 473.5,106.5C 471.497,116.181 469.33,125.847 467,135.5C 461.781,147.362 452.614,153.862 439.5,155C 431.477,155.657 423.477,155.49 415.5,154.5C 416.314,148.934 417.314,143.434 418.5,138C 422.809,136.802 426.476,137.802 429.5,141C 432.833,141.667 436.167,141.667 439.5,141C 441.64,140.027 443.307,138.527 444.5,136.5C 444,136.167 443.5,135.833 443,135.5C 428.061,139.733 420.228,134.067 419.5,118.5C 419.739,114.484 420.072,110.484 420.5,106.5C 418.801,106.66 417.134,106.494 415.5,106C 419.603,95.7325 426.603,88.2325 436.5,83.5 Z"/></g>
<g><path style="opacity:1" fill="#b7b7b7" d="M 499.5,84.5 C 492.167,84.5 484.833,84.5 477.5,84.5C 477.5,86.1667 477.5,87.8333 477.5,89.5C 476.539,87.7354 476.205,85.7354 476.5,83.5C 484.352,83.1746 492.018,83.508 499.5,84.5 Z"/></g>
<g><path style="opacity:1" fill="#131313" d="M 499.5,84.5 C 500.237,90.7009 501.071,97.0342 502,103.5C 505.373,97.2521 508.873,91.0855 512.5,85C 519.856,84.1687 527.189,84.3354 534.5,85.5C 530.5,92.1667 526.5,98.8333 522.5,105.5C 523.729,106.281 525.062,106.781 526.5,107C 517.029,122.779 507.696,138.612 498.5,154.5C 490.648,154.825 482.982,154.492 475.5,153.5C 479.895,146.542 483.895,139.375 487.5,132C 486.17,123.533 485.17,115.033 484.5,106.5C 482.833,106.5 481.167,106.5 479.5,106.5C 479.02,100.809 478.354,95.1423 477.5,89.5C 477.5,87.8333 477.5,86.1667 477.5,84.5C 484.833,84.5 492.167,84.5 499.5,84.5 Z"/></g>
<g><path style="opacity:1" fill="#9e4951" d="M 145.5,86.5 C 148.595,86.6263 150.428,88.293 151,91.5C 152.936,100.811 152.936,110.145 151,119.5C 150.359,121.813 149.026,123.48 147,124.5C 146.228,124.355 145.561,124.022 145,123.5C 142.101,117.682 140.935,111.515 141.5,105C 140.764,98.2811 142.098,92.1145 145.5,86.5 Z"/></g>
<g><path style="opacity:1" fill="#131313" d="M 591.5,89.5 C 598.863,89.1694 606.197,89.5027 613.5,90.5C 612.167,95.8333 610.833,101.167 609.5,106.5C 611.167,107.167 612.833,107.833 614.5,108.5C 611.987,118.065 609.987,127.732 608.5,137.5C 600.833,137.5 593.167,137.5 585.5,137.5C 588.357,127.698 590.357,117.698 591.5,107.5C 590.167,107.5 588.833,107.5 587.5,107.5C 588.827,101.522 590.161,95.522 591.5,89.5 Z"/></g>
<g><path style="opacity:1" fill="#6a6a6a" d="M 224.5,87.5 C 224.5,88.5 224.5,89.5 224.5,90.5C 232.528,90.169 240.528,90.5023 248.5,91.5C 248.376,92.1067 248.043,92.44 247.5,92.5C 239.684,91.5076 231.684,91.1743 223.5,91.5C 223.232,89.901 223.566,88.5676 224.5,87.5 Z"/></g>
<g><path style="opacity:1" fill="#e6e6e6" d="M 352.5,101.5 C 347.637,101.819 342.97,101.486 338.5,100.5C 341.905,96.8659 345.905,96.0326 350.5,98C 351.823,98.8159 352.489,99.9826 352.5,101.5 Z"/></g>
<g><path style="opacity:1" fill="#838483" d="M 338.5,100.5 C 342.97,101.486 347.637,101.819 352.5,101.5C 347.652,102.814 342.652,102.814 337.5,101.5C 337.624,100.893 337.957,100.56 338.5,100.5 Z"/></g>
<g><path style="opacity:1" fill="#e7e7e7" d="M 444.5,99.5 C 445.873,99.3433 447.207,99.51 448.5,100C 445.391,104.917 446.391,107.083 451.5,106.5C 451.303,110.622 450.47,114.622 449,118.5C 445.914,120.22 443.581,119.553 442,116.5C 441.457,113.132 441.624,109.799 442.5,106.5C 441.022,106.762 439.689,106.429 438.5,105.5C 440.215,103.118 442.215,101.118 444.5,99.5 Z"/></g>
<g><path style="opacity:1" fill="#575757" d="M 245.5,104.5 C 246.335,105.943 247.668,106.943 249.5,107.5C 249.376,108.107 249.043,108.44 248.5,108.5C 247.432,107.566 246.099,107.232 244.5,107.5C 244.263,106.209 244.596,105.209 245.5,104.5 Z"/></g>
<g><path style="opacity:1" fill="#666666" d="M 278.5,103.5 C 278.5,104.5 278.5,105.5 278.5,106.5C 279.833,106.5 281.167,106.5 282.5,106.5C 282.737,107.791 282.404,108.791 281.5,109.5C 280.817,107.824 279.483,107.157 277.5,107.5C 277.232,105.901 277.566,104.568 278.5,103.5 Z"/></g>
<g><path style="opacity:1" fill="#5e5e5e" d="M 307.5,104.5 C 308.183,106.176 309.517,106.843 311.5,106.5C 311.737,107.791 311.404,108.791 310.5,109.5C 309.817,107.824 308.483,107.157 306.5,107.5C 306.263,106.209 306.596,105.209 307.5,104.5 Z"/></g>
<g><path style="opacity:1" fill="#4f4f4f" d="M 222.5,117.5 C 230.952,119.155 239.619,120.155 248.5,120.5C 239.5,120.5 230.5,120.5 221.5,120.5C 221.263,119.209 221.596,118.209 222.5,117.5 Z"/></g>
<g><path style="opacity:1" fill="#a1a1a1" d="M 475.5,153.5 C 482.982,154.492 490.648,154.825 498.5,154.5C 490.657,155.82 482.657,155.82 474.5,154.5C 474.624,153.893 474.957,153.56 475.5,153.5 Z"/></g>
</svg>
